<svg width="6" height="17" viewBox="0 0 6 17" fill="none" xmlns="http://www.w3.org/2000/svg">
<path d="M1.62027 15.4494C1.91457 13.7664 2.15363 12.1025 2.21212 10.3918C2.21825 10.2125 2.26279 9.68796 2.19418 9.85377C1.93715 10.4749 2.07251 11.1927 2.01483 11.8625C1.94037 12.7271 1.85948 12.7602 1.78168 11.8266C1.67912 10.5959 1.65365 9.46054 1.6651 8.21273C1.67215 7.44446 1.29525 6.4254 1.87135 5.91707C1.90147 5.89049 2.19917 6.60566 2.23005 6.6793C2.36126 6.99219 2.44116 5.35596 2.48114 5.69289C2.48956 5.76387 2.47831 7.93386 2.34663 6.49995C2.31537 6.15964 1.87109 3.34406 2.37353 3.13717C2.66194 3.01841 2.79734 4.23648 2.83983 4.34777C3.01741 4.81285 2.93634 3.34731 3.09989 2.87712C3.27039 2.38694 3.4874 3.84373 3.61103 4.34777C3.71702 4.77988 3.71864 3.46874 3.71864 3.34342C3.71864 3.31652 3.71864 3.39723 3.71864 3.42413C3.71864 3.47195 3.71864 3.32848 3.71864 3.28065C3.71864 2.21054 3.71864 1.14042 3.71864 0.0703118C3.71864 -0.291974 3.71864 0.852212 3.71864 1.08363" stroke="white" stroke-width="3" stroke-linecap="round"/>
</svg>
