<svg width="6" height="16" viewBox="0 0 6 16" fill="none" xmlns="http://www.w3.org/2000/svg">
<path d="M1.57929 14.3064C1.67272 13.4982 1.63319 12.6543 1.90491 11.8875C2.06527 11.4349 1.99795 12.8447 1.99795 13.3249C1.99795 13.3822 1.99795 13.5543 1.99795 13.497C1.99795 13.4287 1.99795 13.3605 1.99795 13.2923C1.99795 12.272 1.99795 11.2517 1.99795 10.2315C1.99795 8.78791 1.89285 7.29442 2.03981 5.8542C2.06022 5.65416 2.09832 5.47073 2.16541 5.28204C2.31716 4.85523 2.23295 4.221 2.75152 4.04468C3.05676 3.9409 3.2507 3.95039 3.25391 4.27727C3.27076 5.99608 3.28227 7.70653 3.42137 9.42207C3.51089 10.5262 3.71082 11.6183 3.75629 12.7248C3.77157 13.0964 4.00074 12.8592 4.08191 12.6224C4.46872 11.4943 4.34894 10.0275 4.37032 8.85456C4.41404 6.45534 4.49776 3.97011 4.25868 1.57928" stroke="white" stroke-width="3" stroke-linecap="round"/>
</svg>
