<svg width="10" height="9" viewBox="0 0 10 9" fill="none" xmlns="http://www.w3.org/2000/svg">
<path d="M5.29236 6.98613C5.46751 6.05322 5.62833 5.11751 5.81779 4.1874C5.96787 3.45068 6.00956 1.44769 6.48262 2.03206C6.6522 2.24154 6.43689 4.42653 7.24396 3.51185C7.5303 3.18733 7.68794 2.76883 7.90879 2.39665C8.07397 2.1183 8.15048 1.7639 8.40205 1.56025C8.5248 1.46088 8.40161 1.87996 8.35916 2.03206C8.32142 2.16731 7.58281 5.36656 6.77215 3.98366C6.59039 3.67361 6.33694 1.53331 5.60333 1.68893C5.22718 1.76871 4.32331 2.90239 4.17716 3.08293C3.84116 3.49799 3.54691 3.94527 3.22281 4.36969C2.89272 4.80195 2.25182 5.96702 2.02182 5.47417C1.79989 4.99859 2.29123 4.37981 2.38641 3.95149C2.48074 3.52699 2.5895 1.87136 2.10761 1.97845C1.17911 2.18478 1.58386 2.86947 2.0111 3.12582" stroke="white" stroke-width="3" stroke-linecap="round"/>
</svg>
