<svg width="16" height="16" viewBox="0 0 16 16" fill="none" xmlns="http://www.w3.org/2000/svg">
<path fill-rule="evenodd" clip-rule="evenodd" d="M10.0139 2.22864C10.3533 2.17064 10.7326 2.15131 11.0899 2.21198C11.7264 2.31949 12.3162 2.61506 12.7833 3.06064C13.0873 3.06731 13.3866 3.00731 13.6513 2.92198C13.9071 2.83856 14.1526 2.72651 14.3833 2.58798L14.3893 2.58398C14.4853 2.52001 14.6004 2.49121 14.7153 2.50246C14.8301 2.5137 14.9374 2.5643 15.0192 2.64567C15.101 2.72705 15.1521 2.83419 15.1639 2.94895C15.1757 3.0637 15.1474 3.179 15.0839 3.27531C14.9459 3.48531 14.7533 3.85998 14.5379 4.27998L14.4346 4.48064C14.3113 4.72064 14.1846 4.96331 14.0666 5.17131C13.9926 5.30198 13.9133 5.43464 13.8333 5.54931V5.73198C13.8415 6.8244 13.632 7.90752 13.2171 8.91813C12.8022 9.92873 12.1902 10.8466 11.4167 11.6181C10.6433 12.3896 9.72391 12.9994 8.71228 13.4117C7.70065 13.8241 6.61701 14.0309 5.52461 14.02C3.94157 14.0214 2.39185 13.5653 1.06194 12.7066C0.966885 12.6452 0.895507 12.5532 0.859484 12.4459C0.823461 12.3386 0.824926 12.2222 0.863639 12.1158C0.902352 12.0094 0.976022 11.9194 1.0726 11.8603C1.16917 11.8012 1.28293 11.7767 1.39528 11.7906C2.31385 11.9004 3.24486 11.7522 4.08394 11.3626C3.67456 11.1765 3.30843 10.9072 3.00885 10.5718C2.70928 10.2364 2.48284 9.84235 2.34394 9.41464C2.31748 9.33276 2.31259 9.24544 2.32976 9.16111C2.34693 9.07679 2.38557 8.99833 2.44194 8.93331L2.44861 8.92664C2.1102 8.62515 1.83898 8.25584 1.65258 7.84272C1.46617 7.42959 1.36874 6.98187 1.36661 6.52864V6.49398C1.36656 6.38421 1.40263 6.27748 1.46926 6.19025C1.53589 6.10302 1.62937 6.04014 1.73528 6.01131C1.50953 5.56087 1.3924 5.06382 1.39328 4.55998C1.3929 3.98876 1.54231 3.42742 1.82661 2.93198C1.867 2.86165 1.92389 2.8022 1.99238 2.75876C2.06087 2.71531 2.1389 2.68919 2.21974 2.68262C2.30058 2.67606 2.3818 2.68927 2.4564 2.72109C2.531 2.75292 2.59674 2.80241 2.64794 2.86531C3.81407 4.30193 5.48473 5.23909 7.31861 5.48531C7.30269 4.88543 7.45402 4.29296 7.75567 3.7742C8.05732 3.25544 8.49738 2.83086 9.02661 2.54798C9.29461 2.40531 9.64928 2.29131 10.0146 2.22864H10.0139ZM2.49528 7.26064C2.62473 7.62499 2.84657 7.94948 3.13907 8.20237C3.43157 8.45525 3.78471 8.62787 4.16394 8.70331C4.2732 8.72508 4.37206 8.78271 4.44483 8.86706C4.51761 8.95142 4.56012 9.05766 4.56564 9.16893C4.57115 9.2802 4.53935 9.39012 4.47527 9.48126C4.41119 9.57239 4.31851 9.63952 4.21194 9.67198C4.03061 9.72731 3.84461 9.76531 3.65594 9.78731C3.86077 10.0515 4.12218 10.2665 4.42097 10.4165C4.71976 10.5665 5.04835 10.6476 5.38261 10.654C5.48571 10.6559 5.58569 10.6897 5.66885 10.7507C5.75201 10.8117 5.81428 10.8969 5.84714 10.9946C5.87999 11.0924 5.88181 11.1979 5.85236 11.2967C5.8229 11.3955 5.76361 11.4828 5.68261 11.5466C4.98744 12.0936 4.17959 12.4796 3.31728 12.6766C4.03119 12.9052 4.77635 13.021 5.52594 13.02H5.53194C6.49195 13.0301 7.44435 12.8488 8.3335 12.4867C9.22264 12.1246 10.0307 11.5889 10.7105 10.9109C11.3902 10.2329 11.9281 9.42629 12.2926 8.53811C12.657 7.64993 12.8409 6.69801 12.8333 5.73798V5.38131C12.8332 5.2599 12.8772 5.14261 12.9573 5.05131C13.0039 4.99864 13.0839 4.87731 13.1973 4.67798C13.3039 4.48998 13.4226 4.26331 13.5459 4.02398L13.5679 3.97998C13.2197 4.05835 12.8611 4.08018 12.5059 4.04464C12.3858 4.03156 12.2745 3.97544 12.1926 3.88664C11.8573 3.5231 11.4109 3.28111 10.9233 3.19864C10.6773 3.16386 10.4274 3.16949 10.1833 3.21531C9.94533 3.25235 9.71431 3.32494 9.49794 3.43064C9.06172 3.66371 8.7152 4.03499 8.51274 4.48624C8.31028 4.93749 8.26334 5.44317 8.37928 5.92398C8.39752 5.99958 8.39788 6.0784 8.38032 6.15417C8.36276 6.22994 8.32777 6.30056 8.27813 6.36043C8.22848 6.42031 8.16555 6.46777 8.09435 6.49905C8.02314 6.53034 7.94562 6.54458 7.86794 6.54064C5.81967 6.43704 3.88318 5.57514 2.43528 4.12264C2.40715 4.26694 2.39308 4.41363 2.39328 4.56064V4.56198C2.39253 4.92914 2.48258 5.29079 2.65543 5.61473C2.82827 5.93867 3.07854 6.21484 3.38394 6.41864C3.47363 6.47901 3.54133 6.56681 3.57691 6.66889C3.61249 6.77098 3.61402 6.88184 3.58128 6.98487C3.54854 7.0879 3.48329 7.17754 3.39531 7.24036C3.30732 7.30318 3.20135 7.33579 3.09328 7.33331C2.89208 7.32774 2.69186 7.30385 2.49528 7.26064Z" fill="#FCBABB"/>
</svg>
