<svg width="24" height="24" viewBox="0 0 24 24" fill="none" xmlns="http://www.w3.org/2000/svg">
<path d="M20.7096 11.3241C20.8915 11.5953 21.0347 11.8263 21.138 12C21.0347 12.1737 20.8915 12.4047 20.7096 12.6759C20.2876 13.3048 19.6621 14.142 18.8491 14.9767C17.2114 16.658 14.8933 18.25 12 18.25C9.10671 18.25 6.78858 16.658 5.1509 14.9767C4.3379 14.142 3.71241 13.3048 3.2904 12.6759C3.10848 12.4047 2.96527 12.1737 2.86199 12C2.96527 11.8263 3.10848 11.5953 3.2904 11.3241C3.71241 10.6952 4.3379 9.85799 5.1509 9.02331C6.78858 7.34195 9.10671 5.75 12 5.75C14.8933 5.75 17.2114 7.34195 18.8491 9.02331C19.6621 9.85799 20.2876 10.6952 20.7096 11.3241ZM2.66523 12.3464C2.66518 12.3465 2.66519 12.3464 2.66524 12.3463L2.66523 12.3464ZM2.66524 11.6537C2.66519 11.6536 2.66518 11.6535 2.66523 11.6536L2.66524 11.6537ZM12 15.75C14.0711 15.75 15.75 14.0711 15.75 12C15.75 9.92893 14.0711 8.25 12 8.25C9.92893 8.25 8.25 9.92893 8.25 12C8.25 14.0711 9.92893 15.75 12 15.75ZM14.25 12C14.25 13.2426 13.2426 14.25 12 14.25C10.7574 14.25 9.75 13.2426 9.75 12C9.75 10.7574 10.7574 9.75 12 9.75C13.2426 9.75 14.25 10.7574 14.25 12Z" stroke="#FCBABB" stroke-width="1.5" stroke-linecap="round" stroke-linejoin="round"/>
</svg>
