<svg width="12" height="16" viewBox="0 0 12 16" fill="none" xmlns="http://www.w3.org/2000/svg">
<path d="M1.50101 11.3582C1.61679 10.9706 1.71626 10.5777 1.84834 10.1954C2.03947 9.64213 2.15413 9.43683 2.09752 10.1727C2.08183 10.3766 1.45223 13.3812 1.67467 12.1133C1.76953 11.5726 2.15028 11.2484 2.392 10.7541C2.92693 9.66032 3.05931 9.09 3.66052 8.03588C3.96398 7.50381 4.28586 7.33751 4.476 6.75225C4.55493 6.50932 5.15286 4.28441 4.89884 4.08684C4.74178 3.96468 4.65818 4.4051 4.55906 4.57764C4.26371 5.09177 4.26668 5.36264 4.18152 6.03493C4.10656 6.62672 3.8771 8.34186 4.17397 7.82446C4.3019 7.6015 4.39781 7.13767 4.4458 7.88486C4.48906 8.55849 4.41792 9.80971 4.32499 10.4672C4.21424 11.2508 3.89532 12.0162 3.71338 12.7853C3.54976 13.477 3.65582 13.3913 4.15887 14.0765C5.12855 15.3972 5.54816 13.2547 5.72943 12.5663C6.06942 11.2751 5.96799 10.3373 5.86534 9.03258C5.82019 8.45871 5.78336 7.88412 5.72943 7.31101C5.62319 6.18223 5.56972 6.11655 5.63882 7.48468C5.67203 8.14231 5.69242 8.80211 5.77473 9.45542C5.81364 9.7643 5.74097 10.5323 6.00125 10.3615C6.34957 10.1329 6.1949 9.55011 6.25798 9.13829C6.37123 8.39891 6.40283 7.64796 6.5298 6.91082C7.10287 3.58387 7.1817 10.6715 7.31508 6.01983C7.35693 4.56048 7.21202 3.09117 7.37549 1.6404C7.45379 0.945474 7.51609 3.03242 7.61711 3.7244C7.64393 3.90811 7.58484 4.29007 7.76813 4.26051C7.96422 4.22888 7.86184 3.47294 7.85874 3.67155C7.8176 6.30415 7.79416 8.93707 7.75302 11.5696C7.74547 12.0534 7.61711 12.5256 7.61711 13.0118C7.61711 13.7801 7.72063 13.8046 8.4779 13.8046C8.7056 13.8046 9.6268 13.9573 9.64826 13.6461C9.86652 10.4813 9.18191 7.31959 9.45949 4.14725C9.5852 2.71058 9.65581 4.51047 9.65581 4.90987C9.65581 5.57318 9.59289 6.21611 9.5199 6.87307" stroke="white" stroke-width="3" stroke-linecap="round"/>
</svg>
