<svg width="12" height="38" viewBox="0 0 12 38" fill="none" xmlns="http://www.w3.org/2000/svg">
<path d="M8.48192 24.164C8.59518 23.9352 9.87088 20.8255 9.57647 22.4591C9.53855 22.6694 9.19077 24.1115 9.28178 24.5008C9.39625 24.9905 9.9144 23.5339 9.75538 24.806C9.53233 26.5905 10.2032 23.2157 10.3342 25.848C10.3558 26.2811 10.6659 30.9033 9.59752 30.8471C9.22868 30.8277 10.0472 27.3973 10.008 26.9951C9.94778 26.3782 9.45467 28.1058 9.21863 28.6791C8.55041 30.3019 8.13977 30.8303 8.31352 28.5633C8.34924 28.0973 8.38961 27.6275 8.50297 27.1741C8.54056 27.0237 8.55218 27.4823 8.54506 27.6371C8.44096 29.9034 8.127 32.1572 8.06094 34.4255C8.05632 34.584 8.04324 35.7162 8.20828 34.6359C8.76831 30.9703 9.09848 27.261 9.49227 23.5747C9.6056 22.5137 9.25008 25.6949 9.11339 26.7531C8.76036 29.486 8.79304 28.7644 8.945 26.1848C9.00769 25.1204 9.53984 17.4563 9.59752 16.1023C9.61142 15.7758 9.64534 14.8126 9.54489 15.1235C9.00375 16.7984 9.03885 18.6095 8.68188 20.3331C8.63167 20.5756 8.4523 21.273 8.41877 21.0277C8.32133 20.3149 8.44287 19.5886 8.48192 18.8702C8.60746 16.5602 9.34726 9.70375 8.73451 11.9345C8.338 13.3781 7.63506 19.0567 7.55576 19.7227C7.07062 23.797 6.72536 27.8805 6.45068 31.9732C6.04809 37.9718 7.23262 19.9746 7.63995 13.9763C7.77601 11.9728 7.88795 10.2667 7.59786 14.9867C7.4881 16.7725 7.38597 18.5588 7.26107 20.3436C7.15803 21.8161 7.11383 26.1406 6.6717 24.7324C6.29293 23.5259 6.50443 21.4818 5.95603 20.3015C5.06758 18.3894 4.65148 24.3417 4.41945 26.4373C4.36721 26.9091 3.65762 33.582 4.13529 28.8054C4.36429 26.5153 4.64683 24.4638 4.97725 22.1644C5.2108 20.5391 5.10529 18.805 5.76659 17.3021C6.3055 16.0772 5.55 19.9696 5.41928 21.3014C5.10753 24.4773 4.86655 27.6659 4.50365 30.8366C4.44903 31.3137 4.31655 32.7149 4.20896 32.2469C3.62069 29.6879 3.99198 26.0369 3.93532 23.5326C3.85271 19.881 3.83063 18.9726 3.76693 15.6602C3.7591 15.2533 3.79437 14.8435 3.74588 14.4394C3.64034 13.5599 3.6406 16.208 3.57749 17.0916C3.23259 21.9201 2.78921 26.7404 2.50399 31.5733C2.42816 32.8581 2.32804 34.9274 2.27245 36.3093C2.17405 38.7551 2.50859 31.4195 2.60923 28.9738C3.31767 11.7586 2.39461 33.8116 2.97759 19.1123C3.05235 17.2273 3.03979 15.1934 3.43014 13.3238C4.08537 10.1856 2.80997 19.7079 2.34612 22.8801C2.19518 23.9123 2.03216 24.9779 1.77779 25.9953C1.56918 26.8297 1.43908 27.1466 1.5673 25.8374C2.33449 18.0041 4.06061 10.2859 4.88253 2.46247C5.37166 -2.19334 2.75134 11.6043 2.26192 16.2601C1.81985 20.4655 1.6163 24.8987 1.85147 29.1316C1.89678 29.9473 1.99728 27.5043 2.06196 26.6899C2.37355 22.7667 2.72744 18.8484 3.13546 14.934C3.5337 11.1134 3.2999 13.4707 3.59854 10.7558C3.77232 9.17594 3.49681 10.8171 3.47224 10.9452C2.86195 14.1302 2.62113 17.3734 2.04091 20.5647" stroke="white" stroke-width="3" stroke-linecap="round"/>
</svg>
