<svg width="16" height="16" viewBox="0 0 16 16" fill="none" xmlns="http://www.w3.org/2000/svg">
<path d="M14 5.33333V10.6667C14 11.5507 13.6488 12.3986 13.0237 13.0237C12.3986 13.6488 11.5507 14 10.6667 14H5.33333C4.44928 14 3.60143 13.6488 2.97631 13.0237C2.35119 12.3986 2 11.5507 2 10.6667V5.33333C2 4.44928 2.35119 3.60143 2.97631 2.97631C3.60143 2.35119 4.44928 2 5.33333 2H10.6667C11.5507 2 12.3986 2.35119 13.0237 2.97631C13.6488 3.60143 14 4.44928 14 5.33333Z" stroke="#FCBABB" stroke-linecap="round" stroke-linejoin="round"/>
<path d="M7.33333 14V8.00004C7.33333 6.54137 7.66667 5.33337 10 5.33337M6 8.66671H10" stroke="#FCBABB" stroke-linecap="round" stroke-linejoin="round"/>
</svg>
