<svg width="7" height="14" viewBox="0 0 7 14" fill="none" xmlns="http://www.w3.org/2000/svg">
<path d="M4.92442 2.72912C4.92695 2.43564 4.92458 2.14207 4.93201 1.84867C4.9347 1.74217 4.94327 1.42397 4.95478 1.52988C4.97884 1.75128 4.9715 1.97512 4.96996 2.19781C4.96431 3.01152 4.93576 4.40664 4.84852 5.21869C4.83604 5.33484 4.77762 5.664 4.74225 5.55266C4.64295 5.24002 4.67897 4.89964 4.64358 4.57353C4.38074 2.15165 4.3332 4.58541 4.23371 3.3667C4.19213 2.85732 4.33352 1.55008 3.93011 1.86385C3.64863 2.08278 3.59744 2.4979 3.48229 2.83539C3.2676 3.4646 3.12148 4.11516 2.94339 4.75569C2.53827 6.21282 2.33777 6.99931 2.51075 5.05171C2.52131 4.93283 2.87436 2.77845 2.63219 4.04981C2.22444 6.1905 2.2267 8.42904 1.97944 10.5925C1.91964 11.1158 1.85503 11.6396 1.75174 12.1561C1.72776 12.276 1.71427 12.4467 1.59994 12.49C1.54483 12.5109 1.51274 12.0337 1.50885 12.0195" stroke="white" stroke-width="3" stroke-linecap="round"/>
</svg>
