<svg width="24" height="24" viewBox="0 0 24 24" fill="none" xmlns="http://www.w3.org/2000/svg">
<path d="M3.50612 9.43557C3.34336 9.57798 3.25 9.78373 3.25 10L3.25 20C3.25 20.4142 3.58579 20.75 4 20.75H9C9.41422 20.75 9.75 20.4142 9.75 20V16C9.75 15.4033 9.98706 14.831 10.409 14.409C10.831 13.9871 11.4033 13.75 12 13.75C12.5967 13.75 13.169 13.9871 13.591 14.409C14.013 14.831 14.25 15.4033 14.25 16V20C14.25 20.4142 14.5858 20.75 15 20.75H20C20.1989 20.75 20.3897 20.671 20.5303 20.5303C20.671 20.3897 20.75 20.1989 20.75 20L20.75 10C20.75 9.78373 20.6566 9.57798 20.4939 9.43557L12.4939 2.43557C12.2111 2.18814 11.7889 2.18814 11.5061 2.43557L3.50612 9.43557Z" stroke="#FCBABB" stroke-width="1.5" stroke-linecap="round" stroke-linejoin="round"/>
</svg>
